<svg width="22" height="15" viewBox="0 0 18 16" fill="none" xmlns="http://www.w3.org/2000/svg">
<path d="M10.0459 3.10274C9.70254 3.0656 9.35365 3.04432 9 3.03902C7.45463 3.04588 5.85266 3.42177 4.33631 4.14206C3.21044 4.69889 2.11371 5.48499 1.16126 6.45467C0.69348 6.94967 0.096465 7.6664 0 8.4311C0.0114 9.09353 0.722295 9.91115 1.16126 10.4076C2.0544 11.3391 3.12257 12.1028 4.33631 12.7202C4.37756 12.7402 4.41895 12.76 4.46044 12.7795L3.33436 14.746L4.86444 15.6503L13.1357 1.24982L11.6629 0.349701L10.0459 3.10274ZM13.5384 4.08492L12.4145 6.03278C12.9316 6.70451 13.2385 7.53287 13.2385 8.4311C13.2385 10.67 11.3407 12.4851 8.99889 12.4851C8.89765 12.4851 8.79954 12.4741 8.70006 12.4675L7.95628 13.7551C8.2993 13.7918 8.64613 13.8186 8.99998 13.8232C10.5468 13.8162 12.1479 13.436 13.6626 12.7202C14.7885 12.1633 15.8863 11.3772 16.8387 10.4076C17.3065 9.91257 17.9035 9.19583 18 8.4311C17.9886 7.76868 17.2777 6.95106 16.8387 6.45465C15.9456 5.52306 14.8763 4.75946 13.6626 4.14203C13.6216 4.12217 13.5797 4.1043 13.5384 4.08492ZM8.99891 4.37717C9.1016 4.37717 9.20348 4.38128 9.30432 4.38815L8.4331 5.89656C7.21039 6.14445 6.29296 7.18477 6.29296 8.43002C6.29296 8.74283 6.35058 9.0423 6.45666 9.31989V9.321L5.58324 10.8338C5.06498 10.1615 4.75926 9.33038 4.75926 8.43108C4.75927 6.19226 6.65712 4.37716 8.99891 4.37717ZM11.5334 7.55769L9.5702 10.9591C10.7863 10.7065 11.6971 9.67094 11.6971 8.43002C11.6971 8.12291 11.6359 7.83093 11.5334 7.55769Z" fill="#646464"/>
</svg>
