<svg width="20" height="17" viewBox="0 0 20 17" fill="none" xmlns="http://www.w3.org/2000/svg">
<path d="M2 2.4566L8.10764 7.06886L8.10967 7.07055C8.78785 7.56788 9.12714 7.81669 9.49876 7.91281C9.82723 7.99777 10.1725 7.99777 10.501 7.91281C10.8729 7.81661 11.2132 7.56707 11.8926 7.06886C11.8926 7.06886 15.8101 4.06254 18 2.4566M1 12.2568V4.65679C1 3.53669 1 2.97622 1.21799 2.54839C1.40973 2.17207 1.71547 1.86633 2.0918 1.67458C2.51962 1.4566 3.08009 1.4566 4.2002 1.4566H15.8002C16.9203 1.4566 17.4796 1.4566 17.9074 1.67458C18.2837 1.86633 18.5905 2.17207 18.7822 2.54839C19 2.9758 19 3.53559 19 4.65351V12.2602C19 13.3781 19 13.9371 18.7822 14.3645C18.5905 14.7408 18.2837 15.0471 17.9074 15.2388C17.48 15.4566 16.921 15.4566 15.8031 15.4566H4.19691C3.07899 15.4566 2.5192 15.4566 2.0918 15.2388C1.71547 15.0471 1.40973 14.7408 1.21799 14.3645C1 13.9367 1 13.3769 1 12.2568Z" stroke="black" stroke-width="2" stroke-linecap="round" stroke-linejoin="round"/>
</svg>
